<svg id="Layer_1" data-name="Layer 1" xmlns="http://www.w3.org/2000/svg" viewBox="0 0 733.61 767.26"><defs><style>.cls-1{fill:#e49273;}.cls-2{fill:#a8d0db;}.cls-3,.cls-5{fill:none;stroke-width:14px;}.cls-3{stroke:#a8d0db;}.cls-3,.cls-5,.cls-6,.cls-7{stroke-miterlimit:10;}.cls-4{fill:#7180ac;}.cls-5{stroke:#7180ac;}.cls-6,.cls-7{fill:#fff;}.cls-6{stroke:#e49273;stroke-width:3px;}.cls-7{stroke:#000;}</style></defs><title>course-brew</title><ellipse class="cls-1" cx="292.83" cy="727.26" rx="257.5" ry="40"/><path class="cls-2" d="M286.5,1428s-52,418.32,290,417.5V1428Z" transform="translate(-283.67 -1118.74)"/><path class="cls-2" d="M866,1428s52,418.32-290,417.5V1428Z" transform="translate(-283.67 -1118.74)"/><path class="cls-3" d="M869,1526s64.85-58.78,119.11-26.1S980,1626,980,1626s-18.36,43.28-62,58.14S823,1706,823,1706Z" transform="translate(-283.67 -1118.74)"/><path class="cls-1" d="M304.73,1500.38c-1.63-16.13,5.6-10.4,18.5-5.07,0,0-3.35,143.43,72,233.47,0,0,.68,14-9.75,8.42S320,1651.58,304.73,1500.38Z" transform="translate(-283.67 -1118.74)"/><path class="cls-4" d="M649.27,1429.06c28.71,30.76,46.57,71.46,40.05,114-.29,1.89,2.6,2.71,2.89.8,6.7-43.68-11.3-85.3-40.82-116.93-1.32-1.42-3.44.71-2.12,2.12Z" transform="translate(-283.67 -1118.74)"/><path class="cls-5" d="M474,1125s-38,19-38,59,38,37,38,56-38,22-38,47,38,23,38,46-38,38-38,38" transform="translate(-283.67 -1118.74)"/><path class="cls-5" d="M594,1125s-38,19-38,59,38,37,38,56-38,22-38,47,38,23,38,46-38,38-38,38" transform="translate(-283.67 -1118.74)"/><path class="cls-5" d="M720,1125s-38,19-38,59,38,37,38,56-38,22-38,47,38,23,38,46-38,38-38,38" transform="translate(-283.67 -1118.74)"/><path class="cls-4" d="M691.72,1555.39s-61.08-28.15-94.46,13.8L609.39,1668s36.64-35.5,94.83-13.67Z" transform="translate(-283.67 -1118.74)"/><path class="cls-4" d="M692.41,1555.29s52.12-44.69,94.46-13.8L799,1640.3s-43.91-23.73-94.78,14Z" transform="translate(-283.67 -1118.74)"/><path class="cls-6" d="M691,1545.14s48.16-44.11,87.84-12.83L791,1631.12S744.5,1614,703.11,1644Z" transform="translate(-283.67 -1118.74)"/><path class="cls-6" d="M690.81,1545.17S633.7,1516.44,603,1558l12.13,98.81S655.8,1627,703,1644Z" transform="translate(-283.67 -1118.74)"/><path class="cls-6" d="M616.8,1570.54s18.75-27.73,63.26-6.94" transform="translate(-283.67 -1118.74)"/><path class="cls-6" d="M619.09,1585.5s18.74-27.73,63.26-6.94" transform="translate(-283.67 -1118.74)"/><path class="cls-6" d="M621.37,1600.46s18.74-27.73,63.26-6.94" transform="translate(-283.67 -1118.74)"/><path class="cls-6" d="M623.65,1615.42s18.75-27.73,63.26-6.94" transform="translate(-283.67 -1118.74)"/><path class="cls-6" d="M624.91,1629.4s18.75-27.73,63.26-6.94" transform="translate(-283.67 -1118.74)"/><path class="cls-6" d="M768.14,1550.2s-25.16-22.07-62.95,9.34" transform="translate(-283.67 -1118.74)"/><path class="cls-6" d="M769.73,1565.25s-25.17-22.07-63,9.34" transform="translate(-283.67 -1118.74)"/><path class="cls-6" d="M771.32,1580.3s-25.17-22.07-63,9.33" transform="translate(-283.67 -1118.74)"/><path class="cls-6" d="M772.91,1595.35s-25.17-22.07-62.95,9.33" transform="translate(-283.67 -1118.74)"/><path class="cls-6" d="M775.23,1609.19s-25.16-22.07-63,9.34" transform="translate(-283.67 -1118.74)"/><path class="cls-7" d="M66.5,936.5" transform="translate(-283.67 -1118.74)"/></svg>